<svg width="16" height="16" viewBox="0 0 16 16" fill="none" xmlns="http://www.w3.org/2000/svg">
<path d="M8 15.5C3.85775 15.5 0.5 12.1423 0.5 8C0.5 3.85775 3.85775 0.5 8 0.5C12.1423 0.5 15.5 3.85775 15.5 8C15.5 12.1423 12.1423 15.5 8 15.5ZM7.25 10.25V11.75H8.75V10.25H7.25ZM8.75 9.01625C9.35275 8.83458 9.8702 8.44246 10.2081 7.91131C10.546 7.38015 10.6819 6.74529 10.5911 6.12235C10.5002 5.49941 10.1886 4.92983 9.71301 4.51734C9.23744 4.10486 8.62953 3.8769 8 3.875C7.39314 3.87495 6.805 4.08512 6.33559 4.46974C5.86619 4.85437 5.54451 5.38972 5.42525 5.98475L6.89675 6.2795C6.93851 6.07057 7.03874 5.8778 7.18577 5.72361C7.33281 5.56942 7.52061 5.46016 7.72732 5.40853C7.93403 5.3569 8.15115 5.36503 8.35342 5.43198C8.55568 5.49892 8.73478 5.62193 8.86987 5.78668C9.00497 5.95144 9.0905 6.15117 9.11651 6.36263C9.14253 6.5741 9.10796 6.7886 9.01683 6.98119C8.9257 7.17377 8.78175 7.33652 8.60174 7.4505C8.42173 7.56447 8.21306 7.62499 8 7.625C7.80109 7.625 7.61032 7.70402 7.46967 7.84467C7.32902 7.98532 7.25 8.17609 7.25 8.375V9.5H8.75V9.01625Z" fill="#515869"/>
</svg>
