<svg width="22" height="18" viewBox="0 0 22 18" fill="none" xmlns="http://www.w3.org/2000/svg">
<path fill-rule="evenodd" clip-rule="evenodd" d="M2.29863 0.666798V13.7941H7.91661C8.75648 13.7941 9.45142 13.915 10.0017 14.1873C10.2045 14.278 10.4071 14.3991 10.5808 14.52V1.90685C10.3203 1.48345 10.0306 1.18086 9.62517 0.969205C9.19082 0.757435 8.61156 0.666748 7.91661 0.666748H2.29863V0.666798ZM7.91661 14.7016H1.86404C1.63231 14.7016 1.42969 14.5201 1.42969 14.2479V2.60277H0.445068V15.7606H7.07669C8.58252 15.7606 9.36439 15.9724 10.0305 17.3334H11.9708C12.6369 15.9722 13.4477 15.7606 14.9246 15.7606H21.5562V2.60277H20.5716V14.2479C20.5716 14.5201 20.3688 14.7016 20.1372 14.7016H14.0846C12.8684 14.7016 11.9417 14.8831 11.3914 16.0325C11.2466 16.3955 10.7543 16.3955 10.6095 16.0022C10.1172 14.9134 9.07471 14.7016 7.91631 14.7016L7.91661 14.7016ZM11.4497 1.90698V14.5202C12.1448 13.9454 13.0714 13.7942 14.085 13.7942H19.7029V0.666893H14.085C13.3899 0.666893 12.8108 0.75758 12.3764 0.96935C11.971 1.18112 11.6813 1.48357 11.4497 1.907V1.90698Z" fill="#FF6933"/>
</svg>
