<svg width="16" height="15" viewBox="0 0 16 15" fill="none" xmlns="http://www.w3.org/2000/svg">
<path d="M2.75 10.25V11.75C2.74988 12.1284 2.8928 12.4929 3.15012 12.7704C3.40744 13.0479 3.76013 13.2179 4.1375 13.2463L4.25 13.25H6.5V14.75H4.25C3.45435 14.75 2.69129 14.4339 2.12868 13.8713C1.56607 13.3087 1.25 12.5457 1.25 11.75V10.25H2.75ZM12.5 6.5L15.8 14.75H14.1838L13.283 12.5H10.2155L9.31625 14.75H7.70075L11 6.5H12.5ZM11.75 8.66375L10.8148 11H12.6838L11.75 8.66375ZM5 0.5V2H8V7.25H5V9.5H3.5V7.25H0.5V2H3.5V0.5H5ZM11.75 1.25C12.5456 1.25 13.3087 1.56607 13.8713 2.12868C14.4339 2.69129 14.75 3.45435 14.75 4.25V5.75H13.25V4.25C13.25 3.85218 13.092 3.47064 12.8107 3.18934C12.5294 2.90804 12.1478 2.75 11.75 2.75H9.5V1.25H11.75ZM3.5 3.5H2V5.75H3.5V3.5ZM6.5 3.5H5V5.75H6.5V3.5Z" fill="#603183"/>
</svg>
