<svg width="77" height="60" viewBox="0 0 77 60" fill="none" xmlns="http://www.w3.org/2000/svg">
<path d="M38.333 5.17551C39.7305 4.97586 41.1281 5.17551 42.5057 5.27534C47.7964 5.67464 52.9474 6.79268 57.9386 8.6694C64.5271 11.1451 70.4368 14.7587 75.6676 19.4505C76.0669 19.8099 76.3464 20.2292 76.6459 20.6285C76.6459 21.1875 76.6459 21.7265 76.6459 22.2856C75.0687 24.322 73.1321 25.9991 71.3152 27.7959C70.4168 28.6744 68.9793 28.4947 67.9212 27.5563C65.3257 25.2803 62.5306 23.3038 59.4959 21.6667C54.3849 18.9115 48.9544 17.1945 43.1645 16.5955C41.5473 16.4158 39.9302 16.336 38.313 16.2961C38.333 12.5626 38.333 8.86905 38.333 5.17551Z" fill="#0684FE"/>
<path d="M0 20.8081C0.698777 19.5503 1.87672 18.7716 2.93486 17.8932C4.99126 16.1562 7.20739 14.6389 9.50337 13.2213C9.90267 12.9618 10.1622 12.9019 10.5615 13.3212C13.0971 15.8967 15.6726 18.4522 18.288 21.0676C17.5892 21.4469 16.9503 21.8063 16.3314 22.1657C13.6761 23.6631 11.2204 25.44 8.92438 27.4564C7.46693 28.7342 6.2291 28.6943 4.85151 27.3366C3.55378 26.0389 2.25605 24.7212 0.938358 23.4235C0.559022 23.0442 0.339406 22.585 0.0199651 22.1857C-7.43756e-09 21.7065 0 21.2473 0 20.8081Z" fill="#1F90FE"/>
<path d="M9.24414 1.28225C10.8813 -0.354886 13.5766 -0.434747 15.6729 1.10256C16.0522 1.38207 16.4116 1.70151 16.751 2.04092C31.6449 16.9349 46.5189 31.8088 61.4128 46.7028C63.05 48.3399 63.8685 50.2366 63.1698 52.5925C62.9901 53.2114 62.6906 53.7904 62.1516 54.2096C61.8121 54.1897 61.6325 53.9301 61.4328 53.7105C44.203 36.4806 26.9531 19.2508 9.7233 2.00099C9.52365 1.80134 9.26411 1.62165 9.24414 1.28225Z" fill="#F54751"/>
<path d="M9.24369 1.28223C9.26365 1.62163 9.5232 1.80132 9.72285 2.00097C26.9527 19.2308 44.1825 36.4806 61.4324 53.7105C61.632 53.9101 61.8117 54.1896 62.1511 54.2096C60.2744 56.0464 57.3196 56.0464 55.1633 54.2096C54.9437 54.01 54.7241 53.8103 54.5244 53.5907C39.6505 38.6968 24.7565 23.8028 9.8626 8.90888C8.62477 7.67105 7.84613 6.27349 7.8661 4.47664C7.90603 3.2388 8.32529 2.14072 9.24369 1.28223Z" fill="#F5616A"/>
<path d="M35.7975 38.6369C35.0588 38.7767 34.38 38.8965 33.7012 39.0362C30.4069 39.715 27.4321 41.1126 24.7568 43.149C23.0199 44.4667 21.9418 44.4068 20.3845 42.8495C19.1267 41.5917 17.8689 40.3539 16.6311 39.0961C15.3333 37.7784 15.4132 36.4607 16.8307 35.2628C19.6458 32.9069 22.7603 31.0502 26.1743 29.7125C26.5138 29.5728 26.7733 29.5129 27.0927 29.8323C29.8879 32.6674 32.7229 35.4824 35.538 38.3175C35.6178 38.3774 35.6777 38.4772 35.7975 38.6369Z" fill="#1F90FE"/>
<path d="M38.3332 5.1755C38.3332 8.86904 38.3332 12.5825 38.3332 16.2761C37.2551 16.3559 36.177 16.2361 35.1189 16.4158C34.8394 16.4558 34.6597 16.336 34.46 16.1563C31.4054 13.0817 28.3307 10.007 25.2561 6.93243C25.2162 6.8925 25.2162 6.85257 25.1763 6.73278C29.5087 5.67463 33.881 5.11561 38.3332 5.1755Z" fill="#1F90FE"/>
<path d="M46.998 28.6943C48.6951 28.9539 50.2723 29.5329 51.8096 30.2117C54.7844 31.5294 57.5396 33.2264 59.9953 35.3627C61.2531 36.4408 61.293 37.8383 60.1351 38.9963C59.6759 39.4755 59.2366 40.294 58.6776 40.2741C58.1984 40.2541 57.7393 39.4755 57.2801 39.0163C54.0058 35.762 50.7515 32.4877 47.4972 29.2334C47.3375 29.0537 47.1777 28.874 46.998 28.6943Z" fill="#0784FE"/>
<path d="M38.3331 49.7374C40.5891 49.5777 42.6056 50.2765 44.4424 51.4943C45.4007 52.1332 45.5405 53.5308 44.682 54.4492C43.1247 56.1063 41.5075 57.6835 39.8904 59.2607C39.4711 59.66 38.932 59.8797 38.3331 59.7599C38.3131 56.4257 38.3331 53.0716 38.3331 49.7374Z" fill="#0784FE"/>
<path d="M38.3331 49.7375C38.3331 53.0717 38.3331 56.4258 38.3131 59.76C37.6343 59.8199 37.0953 59.5404 36.6361 59.1011C35.1586 57.6237 33.6613 56.1663 32.2038 54.6689C31.0259 53.451 31.2455 52.0535 32.7029 51.2149C34.4599 50.1967 36.2966 49.6377 38.3331 49.7375Z" fill="#1F90FE"/>
</svg>
