<svg width="20" height="22" viewBox="0 0 20 22" fill="none" xmlns="http://www.w3.org/2000/svg">
<path d="M1.01224 12.0223C1.32998 11.9684 1.77632 11.9276 2.40487 11.9276C3.04032 11.9276 3.4934 12.0493 3.79749 12.2926C4.08825 12.5225 4.28428 12.9009 4.28428 13.3471C4.28428 13.7934 4.1356 14.172 3.86506 14.4289C3.51345 14.7601 2.99292 14.909 2.38446 14.909C2.24928 14.909 2.12758 14.9021 2.03286 14.8887V16.5179H1.01221L1.01224 12.0223ZM2.03321 14.0911C2.12103 14.1115 2.22924 14.118 2.37807 14.118C2.92571 14.118 3.26382 13.8409 3.26382 13.3744C3.26382 12.9553 2.97306 12.7053 2.45929 12.7053C2.24977 12.7053 2.10769 12.7257 2.03337 12.7456L2.03321 14.0911Z" fill="#FF577F"/>
<path d="M4.94092 12.0223C5.3195 11.9613 5.81305 11.9276 6.33354 11.9276C7.19893 11.9276 7.76003 12.083 8.19965 12.4142C8.67293 12.7655 8.97032 13.3271 8.97032 14.1314C8.97032 15.0033 8.65258 15.6051 8.21315 15.9771C7.73311 16.3759 7.00306 16.5653 6.11056 16.5653C5.57641 16.5653 5.19781 16.5314 4.94107 16.4976L4.94092 12.0223ZM5.97534 15.7406C6.06317 15.7608 6.20525 15.7608 6.33369 15.7608C7.26665 15.7679 7.87515 15.2538 7.87515 14.1654C7.88189 13.2191 7.3275 12.7185 6.44191 12.7185C6.212 12.7185 6.06333 12.7391 5.97533 12.759L5.97534 15.7406Z" fill="#FF577F"/>
<path d="M9.64615 11.9615H12.4314V12.8066H10.6804V13.8478H12.3164V14.686H10.6804V16.5181H9.646L9.64615 11.9615Z" fill="#FF577F"/>
<path d="M13.115 5.00895H16.3988C15.4136 3.62567 13.4856 1.43357 12.395 0.475037V4.18237C12.3947 4.63804 12.7178 5.0088 13.1151 5.0088L13.115 5.00895Z" fill="#FF577F"/>
<path d="M17.0159 9.0069V6.18363H13.1148C12.1533 6.18363 11.3707 5.28591 11.3707 4.18235V0H1.81906C1.13852 0 0.586914 0.633022 0.586914 1.41409V5.76634H0.58952V9.90827H18.5486V18.3919H0.58952V20.52C0.616496 21.2734 1.15572 21.8751 1.81907 21.8751H15.7842C16.4647 21.8751 17.0161 21.2419 17.0161 20.461V19.2932H19.4503L19.4504 9.00706L17.0159 9.0069Z" fill="#FF577F"/>
</svg>
