<svg width="18" height="16" viewBox="0 0 18 16" fill="none" xmlns="http://www.w3.org/2000/svg">
<path d="M9 14.25H10.5V4.49996L15.2955 6.55496C15.4305 6.61283 15.5455 6.70907 15.6263 6.83173C15.7071 6.95439 15.7501 7.09808 15.75 7.24496V14.25H17.25V15.75H0.75V14.25H2.25V4.23746C2.24998 4.09235 2.29206 3.95034 2.37114 3.82867C2.45021 3.707 2.56289 3.61087 2.6955 3.55196L8.47275 0.983958C8.52991 0.958566 8.5925 0.947872 8.65485 0.95285C8.71719 0.957828 8.7773 0.978319 8.8297 1.01246C8.8821 1.0466 8.92513 1.0933 8.95488 1.14832C8.98462 1.20333 9.00013 1.26492 9 1.32746V14.25Z" fill="#FF6933"/>
</svg>
